<?xml version="1.0" encoding="UTF-8"?>
<svg xmlns="http://www.w3.org/2000/svg" viewBox="0 0 1024 1024" width="1024" height="1024">
<path d="M0.25 0.25C341.42 0.25 682.58 0.25 1023.75 0.25C1023.75 341.42 1023.75 682.58 1023.75 1023.75C682.58 1023.75 341.42 1023.75 0.25 1023.75C0.25 682.58 0.25 341.42 0.25 0.25ZM329.12 443.99C330.25 445.03 331.39 446.07 332.53 447.11C333.9 448.12 335.28 449.13 336.66 450.14C342.16 456 351.03 460.04 358.37 463.15C378.76 471.8 400.89 475.04 423 473.01C423.67 473.01 424.33 473.01 425 473.01C429.67 473.01 434.33 473.02 439 473.03C456.67 473.03 474.33 473.04 492 473.04C502.96 474.16 514.47 473.33 525.5 473.28C532.2 473.24 539.7 474.2 546.26 472.67C553.7 470.94 557.64 465.3 562.61 460.12C570.6 451.78 578.64 443.48 586.61 435.12C590.8 430.72 597.18 425.98 599.69 420.5C591.13 420.4 582.57 420.29 574.02 420.19C530.68 420.19 487.34 420.19 444 420.18C427.37 419.2 410.15 421.95 393.73 418.63C384.34 416.74 378.44 412.15 370.11 408.95C369.04 408.28 367.96 407.61 366.88 406.93C366.63 406.61 366.37 406.29 366.12 405.97C363.88 403.37 360.94 401.44 358.58 398.9C351.92 391.71 346.17 382.79 343.06 373.46C339.8 363.65 338.33 353.84 338.88 343.5C339.28 336.11 340.96 329.12 343.74 322.26C352.17 301.5 371.19 285.55 393.5 282.06C405.96 280.11 418.93 281.05 431.5 281.03C451.5 281 471.5 281.05 491.5 281.02C503.26 281 515.22 281.62 526.95 280.85C537.03 281.6 547.38 281.1 557.5 281.06C563.31 281.03 569.76 281.85 575.3 279.77C583.28 276.78 589.26 268.41 594.8 262.27C601.08 255.3 607.53 248.3 614.06 241.57C618.43 237.08 623.77 232.75 627.13 227.5C612.09 227.38 597.04 227.26 582 227.14C566.63 226.1 550.91 226.96 535.5 226.97C507.17 226.99 478.83 226.96 450.5 226.95C412.18 226.94 378.48 222.97 344.14 243.62C290.31 275.98 271.49 345.54 297.57 401.9C303.62 414.97 316.67 436.45 329.12 443.99ZM451.04 378.89C452.04 379.93 453.05 380.97 454.05 382.01C460.61 391.11 471.49 390.37 481.5 390.37C491.89 390.37 502.68 391.15 513 390.07C515.33 390.06 517.67 390.06 520 390.05C522.03 390.04 524.06 390.04 526.09 390.04C533.74 390.99 541.78 390.35 549.5 390.39C565.17 390.46 580.83 390.36 596.5 390.43C606.93 390.48 617.12 390.22 627.3 392.7C628.2 392.89 629.1 393.07 630 393.26C630.95 393.54 631.9 393.81 632.86 394.09C637.42 396.71 642.43 398.53 646.84 401.63C651.3 404.76 654.77 408.92 658.89 412.32C660.29 414.18 661.7 416.03 663.1 417.88C665 421.31 666.91 424.74 668.81 428.17C669.9 432.99 671.96 437.59 672.82 442.52C675.26 456.44 674.35 471.14 668.66 484.2C665.74 490.91 660.66 495.91 657.01 502.03C655.66 503.35 654.3 504.66 652.95 505.98C652.21 506.62 651.47 507.27 650.73 507.92C649.79 508.61 648.85 509.3 647.9 509.99C640.27 513.8 633.8 517.88 625.21 519.57C608.12 522.93 590.27 519.95 573 521.1C545.64 521.1 518.28 521.1 490.92 521.1C479.95 520.16 467.36 519.86 456.54 522.12C436.33 526.36 419.46 542.22 415.07 562.52C413.57 569.45 413.31 576.86 414.01 583.91C414.17 605.25 414.34 626.59 414.5 647.93C425.1 639.32 435.69 630.7 446.29 622.09C447.21 621.38 448.14 620.68 449.06 619.98C453.99 616.76 467.55 606.99 468.89 601.45C470.65 594.16 466.38 580 472.47 574.97C476.78 571.41 484.28 572.94 489.5 572.96C503.9 572.99 518.65 573.85 533 572.81C556.33 572.81 579.67 572.81 603 572.81C622.19 573.71 641.56 571.61 659.28 563.79C702.88 544.52 731.1 496.57 726.86 449.12C726.61 446.77 726.36 444.41 726.11 442.06C725.72 439.37 725.33 436.68 724.94 434C724.18 422.56 717.82 405.24 711.03 395.94C706.61 382.79 687.36 364.45 675.84 356.9C669.91 351.93 661.41 347.26 654 345.09C652.95 344.66 651.89 344.24 650.84 343.82C639.54 337.99 620.51 336.1 608 337.12C604.67 337.13 601.33 337.13 598 337.13C595.67 337.13 593.33 337.13 591 337.13C588.67 337.13 586.33 337.13 584 337.13C581.67 337.12 579.33 337.12 577 337.12C574 337.12 571 337.12 568 337.12C565.67 337.12 563.33 337.12 561 337.12C557.67 337.12 554.33 337.12 551 337.12C549.33 337.12 547.67 337.12 546 337.12C501.71 337.25 457.42 337.37 413.13 337.5C425.77 351.3 438.4 365.09 451.04 378.89ZM358.83 704.95C341.51 703.86 323.87 704.65 306.5 704.67C295.46 704.69 283.47 703.42 272.56 705.24C261.71 707.05 253.05 715.21 250.36 725.78C249.35 729.75 249.04 733.6 249.66 737.67C251.32 748.59 259.47 757.79 270.54 759.86C277.62 761.19 285.33 760.29 292.5 760.29C301.5 760.29 310.5 760.43 319.5 760.36C328.84 760.28 346.87 757.49 347.32 771.5C347.73 784.37 334.4 783.43 325.5 783.41C301.32 783.35 277.11 783.06 252.94 783.5C252.94 788.76 252.94 794.02 252.94 799.28C278.12 799.56 303.31 799.18 328.5 799.31C343.15 799.38 358.08 796.58 362.77 780.33C363.77 776.87 364.17 773.09 363.9 769.5C361.66 739.84 329.4 744.14 308.5 744.11C303.5 744.1 298.5 744.07 293.5 744.08C284.9 744.1 267.27 747.27 266.13 734.49C264.92 721 278.16 721.26 287.5 721.25C311.01 721.24 335.44 722.59 358.83 721C358.83 715.65 358.83 710.3 358.83 704.95ZM422.48 705.32C422.48 710.38 422.48 715.44 422.48 720.5C429.74 722.18 438 721.19 445.5 721.22C460.5 721.27 475.5 721.2 490.5 721.25C501.6 721.29 514.05 720.44 514.01 735.5C513.97 749.75 501.03 749.64 490.5 749.64C475.5 749.65 460.5 749.62 445.5 749.69C437.98 749.72 429.75 748.72 422.45 750.32C422.45 766.61 422.45 782.9 422.45 799.19C427.96 799.19 433.47 799.19 438.98 799.19C438.98 788.08 438.98 776.98 438.98 765.88C445.48 765.86 451.99 765.83 458.5 765.82C468.17 765.81 477.83 765.89 487.5 765.83C507.3 765.69 524.34 765.2 530.01 742.5C530.91 738.93 531.17 735.31 530.7 731.63C529.04 718.46 519.85 707.49 506.44 705.23C499.93 704.14 493.07 704.75 486.5 704.71C476.17 704.66 465.83 704.74 455.5 704.7C444.8 704.65 432.97 703.37 422.48 705.32ZM586.9 704.81C586.9 736.27 586.9 767.74 586.9 799.2C592.49 799.2 598.07 799.2 603.65 799.2C603.65 767.74 603.65 736.27 603.65 704.81C598.07 704.81 592.49 704.81 586.9 704.81ZM777 798.5C767.23 789.66 758.3 779.83 749.01 770.49C734.22 755.63 719.04 741.11 704.49 726.01C699.74 721.09 694.76 716.4 689.93 711.56C688.08 709.71 685.82 706.03 683.33 705.09C680.14 703.88 663.7 704.43 660.39 705.5C675.83 720.83 691.27 736.17 706.71 751.5C691.21 767.17 675.72 782.83 660.22 798.5C663.57 799.55 680.1 800.13 683.28 798.84C686.14 797.68 691.13 791.39 693.52 789.02C701.79 780.78 710.2 772.68 718.5 764.48C725.83 769.03 737.53 782.71 744.11 789.39C746.29 791.61 751.14 797.73 753.73 798.83C756.92 800.17 773.59 799.51 777 798.5ZM752.97 706.1C750.3 708.77 747.63 711.43 744.96 714.1C743.65 715.37 742.34 716.64 741.04 717.91C739.71 719.28 738.39 720.66 737.06 722.03C736.39 722.69 735.72 723.35 735.05 724.01C732.45 726.51 729.86 729 727.26 731.5C730.83 735.05 734.41 738.59 737.98 742.14C738.15 742.48 738.33 742.83 738.5 743.17C740.66 741.12 742.82 739.06 744.99 737C751.01 730.98 757.04 724.96 763.07 718.94C765.07 717.04 767.07 715.13 769.07 713.22C771.8 710.64 774.52 708.07 777.24 705.5C773.49 705.33 769.75 705.17 766 705C765.65 705 765.3 705 764.96 705C761.17 704.65 756.09 703.89 752.97 706.1Z" fill="#020105" fill-rule="evenodd" stroke="#020105" stroke-width="0.25" stroke-linejoin="round"/>
<path d="M582 227.14C582.17 228.09 582.33 229.05 582.5 230C579.17 230.35 575.83 230.7 572.5 231.05C572.33 233.21 570.63 232.79 568.5 233.25C568.76 234.67 566.53 239.19 565.38 239.99C564.23 240.78 561.85 240.51 560.5 240.64C561.14 243.44 559.24 244.45 559.5 246.95C556.42 247.8 553.35 248.65 550.27 249.5C548.79 254.08 545.38 252.87 541.5 255.24C548.94 259.2 540.36 258.6 539.36 260.74C538.72 262.13 539.91 262.15 538.5 264.18C537.47 261.13 537.21 260.28 538.92 257.5C532.82 258.34 534.42 265.09 539.46 267.5C537.13 268.5 534.79 269.5 532.46 270.5C534.56 271.5 536.67 272.5 538.77 273.5C534.51 271.53 532.37 275.76 536.82 277.59C540.54 279.12 547.94 277.82 552.38 278.5C546.09 278.99 539.8 278.69 533.5 279.08C530.88 279.25 528.32 278.61 526.95 280.85C515.22 281.62 503.26 281 491.5 281.02C471.5 281.05 451.5 281 431.5 281.03C418.93 281.05 405.96 280.11 393.5 282.06C371.19 285.55 352.17 301.5 343.74 322.26C340.96 329.12 339.28 336.11 338.88 343.5C338.33 353.84 339.8 363.65 343.06 373.46C346.17 382.79 351.92 391.71 358.58 398.9C360.94 401.44 363.88 403.37 366.12 405.97C365.41 406.48 364.71 406.99 364 407.5C361.17 404.86 358.33 402.22 355.5 399.57C354.44 401.62 355.82 400.93 355.31 401.87C354.84 402.73 353.82 402.22 353.18 402.7C351.94 403.64 349.28 406.66 348.55 408.03C347.82 409.39 348.18 410.87 347.67 412.27C347.24 413.44 341.3 418.35 340.32 418.71C339.84 418.88 338.41 418.57 337.91 418.5C337.11 421.75 336.3 425 335.5 428.25C333.31 429.33 331.13 430.42 328.94 431.5C328.33 434.5 327.72 437.5 327.1 440.5C327.78 441.66 328.45 442.82 329.12 443.99C316.67 436.45 303.62 414.97 297.57 401.9C271.49 345.54 290.31 275.98 344.14 243.62C378.48 222.97 412.18 226.94 450.5 226.95C478.83 226.96 507.17 226.99 535.5 226.97C550.91 226.96 566.63 226.1 582 227.14ZM454.05 382.01C453.05 380.97 452.04 379.93 451.04 378.89C451.19 378.48 451.35 378.08 451.5 377.67C452.67 378.28 453.83 378.89 455 379.5C455.04 380.17 455.07 380.83 455.11 381.5C454.76 381.67 454.4 381.84 454.05 382.01ZM366.88 406.93C367.96 407.61 369.04 408.28 370.11 408.95C369.91 409.3 369.7 409.64 369.5 409.98C368.33 409.82 367.17 409.66 366 409.5C366.29 408.64 366.59 407.79 366.88 406.93ZM336.66 450.14C335.28 449.13 333.9 448.12 332.53 447.11C332.85 446.18 333.18 445.25 333.5 444.32C335.53 445.54 336.54 446.24 335.93 448.5C336.18 449.05 336.42 449.59 336.66 450.14Z" fill="#8925fc" fill-rule="evenodd" stroke="#8925fc" stroke-width="0.25" stroke-linejoin="round"/>
<path d="M582 227.14C597.04 227.26 612.09 227.38 627.13 227.5C623.77 232.75 618.43 237.08 614.06 241.57C607.53 248.3 601.08 255.3 594.8 262.27C589.26 268.41 583.28 276.78 575.3 279.77C569.76 281.85 563.31 281.03 557.5 281.06C547.38 281.1 537.03 281.6 526.95 280.85C528.32 278.61 530.88 279.25 533.5 279.08C539.8 278.69 546.09 278.99 552.38 278.5C547.94 277.82 540.54 279.12 536.82 277.59C532.37 275.76 534.51 271.53 538.77 273.5C536.67 272.5 534.56 271.5 532.46 270.5C534.79 269.5 537.13 268.5 539.46 267.5C534.42 265.09 532.82 258.34 538.92 257.5C537.21 260.28 537.47 261.13 538.5 264.18C539.91 262.15 538.72 262.13 539.36 260.74C540.36 258.6 548.94 259.2 541.5 255.24C545.38 252.87 548.79 254.08 550.27 249.5C553.35 248.65 556.42 247.8 559.5 246.95C559.24 244.45 561.14 243.44 560.5 240.64C561.85 240.51 564.23 240.78 565.38 239.99C566.53 239.19 568.76 234.67 568.5 233.25C570.63 232.79 572.33 233.21 572.5 231.05C575.83 230.7 579.17 230.35 582.5 230C582.33 229.05 582.17 228.09 582 227.14ZM546 337.12C547.67 337.12 549.33 337.12 551 337.12C554.33 337.12 557.67 337.12 561 337.12C563.33 337.12 565.67 337.12 568 337.12C571 337.12 574 337.12 577 337.12C575.17 337.42 573.33 337.71 571.5 338C572.82 339.5 574.14 341 575.46 342.5C573.33 344.92 571.24 345.12 568.5 346.39C570.18 346.85 569.63 346.04 570.57 347.5C567.21 349.55 563.86 351.6 560.5 353.65C559.68 354.91 559.83 355.84 559.28 356.88C558.12 359.06 554.83 359.2 553.26 360.82C549.98 364.19 549.82 368.17 544.5 368.77C544.33 369.84 544.7 371.66 544.5 372.48C544.15 373.88 539.73 376.19 538.5 376.81C539.44 383.65 530.86 386.82 526.09 390.04C524.06 390.04 522.03 390.04 520 390.05C517.67 390.06 515.33 390.06 513 390.07C502.68 391.15 491.89 390.37 481.5 390.37C471.49 390.37 460.61 391.11 454.05 382.01C454.4 381.84 454.76 381.67 455.11 381.5C455.07 380.83 455.04 380.17 455 379.5C453.83 378.89 452.67 378.28 451.5 377.67C451.35 378.08 451.19 378.48 451.04 378.89C438.4 365.09 425.77 351.3 413.13 337.5C457.42 337.37 501.71 337.25 546 337.12ZM584 337.13C586.33 337.13 588.67 337.13 591 337.13C590.83 337.42 590.67 337.71 590.5 338C588.5 338 586.5 338 584.5 338C584.33 337.71 584.17 337.42 584 337.13ZM598 337.13C601.33 337.13 604.67 337.13 608 337.12C607.83 337.42 607.67 337.71 607.5 338C604.5 338 601.5 338 598.5 338C598.33 337.71 598.17 337.42 598 337.13ZM366.12 405.97C366.37 406.29 366.63 406.61 366.88 406.93C366.59 407.79 366.29 408.64 366 409.5C367.17 409.66 368.33 409.82 369.5 409.98C369.7 409.64 369.91 409.3 370.11 408.95C378.44 412.15 384.34 416.74 393.73 418.63C410.15 421.95 427.37 419.2 444 420.18C461.67 420.62 479.33 421.06 497 421.5C490.64 422.77 483.96 421.5 477.5 421.77C472.44 421.99 468.81 424.37 464.12 425.5C464.47 428.22 462.96 427.48 464.14 431.5C459.13 432.87 451.91 438.83 448.46 442.93C447.5 444.07 447.17 445.64 446.21 446.69C444.36 448.71 441.71 449.14 439.99 451.62C436.21 457.06 439.66 458.69 433.5 463.31C435.53 465.31 430.51 469.52 428.31 470.61C426.98 471.27 425.19 470.81 423.93 471.51C423.19 471.92 423.38 472.4 423 473.01C400.89 475.04 378.76 471.8 358.37 463.15C351.03 460.04 342.16 456 336.66 450.14C336.42 449.59 336.18 449.05 335.93 448.5C336.54 446.24 335.53 445.54 333.5 444.32C333.18 445.25 332.85 446.18 332.53 447.11C331.39 446.07 330.25 445.03 329.12 443.99C328.45 442.82 327.78 441.66 327.1 440.5C327.72 437.5 328.33 434.5 328.94 431.5C331.13 430.42 333.31 429.33 335.5 428.25C336.3 425 337.11 421.75 337.91 418.5C338.41 418.57 339.84 418.88 340.32 418.71C341.3 418.35 347.24 413.44 347.67 412.27C348.18 410.87 347.82 409.39 348.55 408.03C349.28 406.66 351.94 403.64 353.18 402.7C353.82 402.22 354.84 402.73 355.31 401.87C355.82 400.93 354.44 401.62 355.5 399.57C358.33 402.22 361.17 404.86 364 407.5C364.71 406.99 365.41 406.48 366.12 405.97ZM439 473.03C434.33 473.02 429.67 473.01 425 473.01C425.17 472.67 425.33 472.34 425.5 472C429.83 472 434.17 472 438.5 472C438.67 472.34 438.83 472.68 439 473.03ZM764.96 705C764.8 705.19 764.65 705.38 764.5 705.57C763 705.88 761.5 706.19 760 706.5C762.67 706.5 765.33 706.5 768 706.5C767.33 706 766.67 705.5 766 705C769.75 705.17 773.49 705.33 777.24 705.5C774.52 708.07 771.8 710.64 769.07 713.22C768.77 712.81 768.47 712.41 768.17 712C769.63 710.55 770.17 709.81 770.5 708C769.61 708.67 768.72 709.33 767.83 710C765.33 708.58 764.11 707.77 761.5 709C759.17 709 756.83 709 754.5 709C753.99 708.03 753.48 707.07 752.97 706.1C756.09 703.89 761.17 704.65 764.96 705Z" fill="#632df9" fill-rule="evenodd" stroke="#632df9" stroke-width="0.25" stroke-linejoin="round"/>
<path d="M358.83 704.95C358.83 710.3 358.83 715.65 358.83 721C335.44 722.59 311.01 721.24 287.5 721.25C278.16 721.26 264.92 721 266.13 734.49C267.27 747.27 284.9 744.1 293.5 744.08C298.5 744.07 303.5 744.1 308.5 744.11C329.4 744.14 361.66 739.84 363.9 769.5C364.17 773.09 363.77 776.87 362.77 780.33C358.08 796.58 343.15 799.38 328.5 799.31C303.31 799.18 278.12 799.56 252.94 799.28C252.94 794.02 252.94 788.76 252.94 783.5C277.11 783.06 301.32 783.35 325.5 783.41C334.4 783.43 347.73 784.37 347.32 771.5C346.87 757.49 328.84 760.28 319.5 760.36C310.5 760.43 301.5 760.29 292.5 760.29C285.33 760.29 277.62 761.19 270.54 759.86C259.47 757.79 251.32 748.59 249.66 737.67C249.04 733.6 249.35 729.75 250.36 725.78C253.05 715.21 261.71 707.05 272.56 705.24C283.47 703.42 295.46 704.69 306.5 704.67C323.87 704.65 341.51 703.86 358.83 704.95ZM422.48 705.32C432.97 703.37 444.8 704.65 455.5 704.7C465.83 704.74 476.17 704.66 486.5 704.71C493.07 704.75 499.93 704.14 506.44 705.23C519.85 707.49 529.04 718.46 530.7 731.63C531.17 735.31 530.91 738.93 530.01 742.5C524.34 765.2 507.3 765.69 487.5 765.83C477.83 765.89 468.17 765.81 458.5 765.82C451.99 765.83 445.48 765.86 438.98 765.88C438.98 776.98 438.98 788.08 438.98 799.19C433.47 799.19 427.96 799.19 422.45 799.19C422.45 782.9 422.45 766.61 422.45 750.32C429.75 748.72 437.98 749.72 445.5 749.69C460.5 749.62 475.5 749.65 490.5 749.64C501.03 749.64 513.97 749.75 514.01 735.5C514.05 720.44 501.6 721.29 490.5 721.25C475.5 721.2 460.5 721.27 445.5 721.22C438 721.19 429.74 722.18 422.48 720.5C422.48 715.44 422.48 710.38 422.48 705.32ZM586.9 704.81C592.49 704.81 598.07 704.81 603.65 704.81C603.65 736.27 603.65 767.74 603.65 799.2C598.07 799.2 592.49 799.2 586.9 799.2C586.9 767.74 586.9 736.27 586.9 704.81ZM777 798.5C773.59 799.51 756.92 800.17 753.73 798.83C751.14 797.73 746.29 791.61 744.11 789.39C737.53 782.71 725.83 769.03 718.5 764.48C710.2 772.68 701.79 780.78 693.52 789.02C691.13 791.39 686.14 797.68 683.28 798.84C680.1 800.13 663.57 799.55 660.22 798.5C675.72 782.83 691.21 767.17 706.71 751.5C691.27 736.17 675.83 720.83 660.39 705.5C663.7 704.43 680.14 703.88 683.33 705.09C685.82 706.03 688.08 709.71 689.93 711.56C694.76 716.4 699.74 721.09 704.49 726.01C719.04 741.11 734.22 755.63 749.01 770.49C758.3 779.83 767.23 789.66 777 798.5Z" fill="#f0f1f2" fill-rule="evenodd" stroke="#f0f1f2" stroke-width="0.25" stroke-linejoin="round"/>
<path d="M546 337.12C547.67 337.12 549.33 337.12 551 337.12C549.33 337.12 547.67 337.12 546 337.12ZM561 337.12C563.33 337.12 565.67 337.12 568 337.12C565.67 337.12 563.33 337.12 561 337.12ZM577 337.12C579.33 337.12 581.67 337.12 584 337.13C584.17 337.42 584.33 337.71 584.5 338C586.5 338 588.5 338 590.5 338C590.67 337.71 590.83 337.42 591 337.13C593.33 337.13 595.67 337.13 598 337.13C598.17 337.42 598.33 337.71 598.5 338C601.5 338 604.5 338 607.5 338C607.67 337.71 607.83 337.42 608 337.12C620.51 336.1 639.54 337.99 650.84 343.82C650.56 344.04 650.28 344.27 650 344.5C651.17 345 652.33 345.5 653.5 346C653.67 345.7 653.83 345.39 654 345.09C661.41 347.26 669.91 351.93 675.84 356.9C674.22 356.77 672.61 356.63 671 356.5C672 357.83 673 359.17 674 360.5C672.71 360.39 670.93 360.51 669.72 361.22C669.35 361.44 668.9 362.56 668.5 362.56C667.73 362.57 667.89 360.9 666.72 361.22C665.92 361.44 667.04 362.77 666.75 363.31C666.06 364.63 666.53 362.92 665.5 364C663.13 361.52 665.7 362.61 663.5 360.34C661.18 362.99 658.08 365.66 656.15 368.75C655.11 370.43 654.43 371.97 653.01 373.45C651.61 374.9 649.83 375.58 648.4 376.83C647.54 377.59 647.06 378.83 646.11 379.61C643.81 381.48 639.85 382.03 637.81 384.36C635.79 386.67 639.39 386.05 634.5 389.01C635.32 390.56 635.42 390.28 634.55 391.5C634.53 391.96 635.32 393.23 634.47 393.51C633.05 393.99 634.94 392.39 633.52 392.89C632.73 393.18 633.51 393.57 632.86 394.09C631.9 393.81 630.95 393.54 630 393.26C630.33 392.67 630.67 392.09 631 391.5C629.83 391.44 628.67 391.38 627.5 391.32C627.43 391.78 627.37 392.24 627.3 392.7C617.12 390.22 606.93 390.48 596.5 390.43C580.83 390.36 565.17 390.46 549.5 390.39C541.78 390.35 533.74 390.99 526.09 390.04C530.86 386.82 539.44 383.65 538.5 376.81C539.73 376.19 544.15 373.88 544.5 372.48C544.7 371.66 544.33 369.84 544.5 368.77C549.82 368.17 549.98 364.19 553.26 360.82C554.83 359.2 558.12 359.06 559.28 356.88C559.83 355.84 559.68 354.91 560.5 353.65C563.86 351.6 567.21 349.55 570.57 347.5C569.63 346.04 570.18 346.85 568.5 346.39C571.24 345.12 573.33 344.92 575.46 342.5C574.14 341 572.82 339.5 571.5 338C573.33 337.71 575.17 337.42 577 337.12ZM520 390.05C517.67 390.06 515.33 390.06 513 390.07C515.33 390.06 517.67 390.06 520 390.05ZM444 420.18C487.34 420.19 530.68 420.19 574.02 420.19C570.39 420.63 566.76 421.06 563.13 421.5C565.12 422.17 567.1 422.83 569.09 423.5C567.11 426.17 565.12 428.83 563.14 431.5C557.36 433.49 555.98 439.25 550.5 440.48C548.97 445.31 544.99 448.4 541.13 451.6C540.44 452.16 539.25 452.4 538.7 453.09C538.05 453.89 538.3 454.71 537.5 455.64C534.62 457.29 527.36 463.21 527.5 466.51C525.09 467.89 522.36 468.67 522.5 471.5C515.5 471.71 508.5 471.9 501.5 472.14C498.42 472.25 494.37 471.68 492 473.04C474.33 473.04 456.67 473.03 439 473.03C438.83 472.68 438.67 472.34 438.5 472C434.17 472 429.83 472 425.5 472C425.33 472.34 425.17 472.67 425 473.01C424.33 473.01 423.67 473.01 423 473.01C423.38 472.4 423.19 471.92 423.93 471.51C425.19 470.81 426.98 471.27 428.31 470.61C430.51 469.52 435.53 465.31 433.5 463.31C439.66 458.69 436.21 457.06 439.99 451.62C441.71 449.14 444.36 448.71 446.21 446.69C447.17 445.64 447.5 444.07 448.46 442.93C451.91 438.83 459.13 432.87 464.14 431.5C462.96 427.48 464.47 428.22 464.12 425.5C468.81 424.37 472.44 421.99 477.5 421.77C483.96 421.5 490.64 422.77 497 421.5C479.33 421.06 461.67 420.62 444 420.18ZM490.92 521.1C493.62 521.9 496.32 522.7 499.02 523.5C501.35 526.78 497.47 528.39 495.55 531.05C494.73 532.2 494.48 533.86 493.26 534.78C492.25 535.54 491.03 535.58 490.03 536.53C488.94 537.56 488.43 538.88 487.58 540.05C485.65 542.69 481.42 544.5 478.5 545.45C478.93 549.87 474.39 548.1 475.06 551.5C471.81 552.76 470.4 554.26 469.38 557.5C465.08 559.6 460.68 560.27 460.46 565.5C459.11 565.57 457.1 565.36 455.85 566.4C455 567.11 454.77 568.7 454.1 569.63C452.51 571.85 449.92 573.69 447.99 575.55C446.69 576.79 442.57 580.03 441.73 581.13C441.4 581.57 441.68 582.14 441.46 582.44C439.88 584.56 437.19 586.81 435.21 588.61C432.88 590.73 429.82 591.22 427.48 592.97C426.29 593.87 426.06 595.41 424.99 596.41C421.76 599.42 418.61 600.03 416.33 603.5C415.56 596.97 414.78 590.44 414.01 583.91C413.31 576.86 413.57 569.45 415.07 562.52C419.46 542.22 436.33 526.36 456.54 522.12C467.36 519.86 479.95 520.16 490.92 521.1ZM764.96 705C765.3 705 765.65 705 766 705C766.67 705.5 767.33 706 768 706.5C765.33 706.5 762.67 706.5 760 706.5C761.5 706.19 763 705.88 764.5 705.57C764.65 705.38 764.8 705.19 764.96 705ZM752.97 706.1C753.48 707.07 753.99 708.03 754.5 709C756.83 709 759.17 709 761.5 709C764.11 707.77 765.33 708.58 767.83 710C767.94 710.67 768.06 711.33 768.17 712C768.47 712.41 768.77 712.81 769.07 713.22C767.07 715.13 765.07 717.04 763.07 718.94C761.71 718.46 760.36 717.98 759 717.5C757.08 722.1 751.77 719.86 748.5 723C746.5 721.08 745.27 721.03 742.5 721C743.41 719.66 743.76 719.37 743 717.85C743.67 717.06 744.33 716.28 745 715.5C744.99 715.03 744.97 714.56 744.96 714.1C747.63 711.43 750.3 708.77 752.97 706.1ZM764.5 710C761.26 711.54 760.39 710.3 757.5 712.76C760.67 712.76 763.83 712.76 767 712.76C766.17 711.84 765.33 710.92 764.5 710Z" fill="#2f47f1" fill-rule="evenodd" stroke="#2f47f1" stroke-width="0.25" stroke-linejoin="round"/>
<path d="M650.84 343.82C651.89 344.24 652.95 344.66 654 345.09C653.83 345.39 653.67 345.7 653.5 346C652.33 345.5 651.17 345 650 344.5C650.28 344.27 650.56 344.04 650.84 343.82ZM675.84 356.9C687.36 364.45 706.61 382.79 711.03 395.94C710.85 398.19 710.68 400.45 710.5 402.71C708.5 402.51 706.5 402.32 704.5 402.12C701.88 408.78 698.92 406.53 696.34 409.9C695.83 410.57 695.87 411.32 695.42 411.97C695.02 412.54 693.86 412.93 693.73 413.66C693.71 413.8 694.47 416.23 694.5 417C693.46 417.32 691.97 416.95 691.03 417.53C689.94 418.21 690.79 419.09 690.44 420C689.57 422.25 686.77 424.46 685.5 427C685.39 426.2 685.78 424.06 685.59 423.53C685.23 422.47 682.19 422.08 681.35 422.44C680.64 422.75 680.76 423.35 680.18 423.73C677.05 425.8 674.55 428.27 671.5 430.18C670.25 428.07 670.72 427.46 668.81 428.17C666.91 424.74 665 421.31 663.1 417.88C663.07 416.75 663.03 415.63 663 414.5C662.17 413.67 661.33 412.83 660.5 412C659.96 412.11 659.43 412.22 658.89 412.32C654.77 408.92 651.3 404.76 646.84 401.63C642.43 398.53 637.42 396.71 632.86 394.09C633.51 393.57 632.73 393.18 633.52 392.89C634.94 392.39 633.05 393.99 634.47 393.51C635.32 393.23 634.53 391.96 634.55 391.5C635.42 390.28 635.32 390.56 634.5 389.01C639.39 386.05 635.79 386.67 637.81 384.36C639.85 382.03 643.81 381.48 646.11 379.61C647.06 378.83 647.54 377.59 648.4 376.83C649.83 375.58 651.61 374.9 653.01 373.45C654.43 371.97 655.11 370.43 656.15 368.75C658.08 365.66 661.18 362.99 663.5 360.34C665.7 362.61 663.13 361.52 665.5 364C666.53 362.92 666.06 364.63 666.75 363.31C667.04 362.77 665.92 361.44 666.72 361.22C667.89 360.9 667.73 362.57 668.5 362.56C668.9 362.56 669.35 361.44 669.72 361.22C670.93 360.51 672.71 360.39 674 360.5C673 359.17 672 357.83 671 356.5C672.61 356.63 674.22 356.77 675.84 356.9ZM630 393.26C629.1 393.07 628.2 392.89 627.3 392.7C627.37 392.24 627.43 391.78 627.5 391.32C628.67 391.38 629.83 391.44 631 391.5C630.67 392.09 630.33 392.67 630 393.26ZM574.02 420.19C582.57 420.29 591.13 420.4 599.69 420.5C597.18 425.98 590.8 430.72 586.61 435.12C578.64 443.48 570.6 451.78 562.61 460.12C557.64 465.3 553.7 470.94 546.26 472.67C539.7 474.2 532.2 473.24 525.5 473.28C514.47 473.33 502.96 474.16 492 473.04C494.37 471.68 498.42 472.25 501.5 472.14C508.5 471.9 515.5 471.71 522.5 471.5C522.36 468.67 525.09 467.89 527.5 466.51C527.36 463.21 534.62 457.29 537.5 455.64C538.3 454.71 538.05 453.89 538.7 453.09C539.25 452.4 540.44 452.16 541.13 451.6C544.99 448.4 548.97 445.31 550.5 440.48C555.98 439.25 557.36 433.49 563.14 431.5C565.12 428.83 567.11 426.17 569.09 423.5C567.1 422.83 565.12 422.17 563.13 421.5C566.76 421.06 570.39 420.63 574.02 420.19ZM490.92 521.1C518.28 521.1 545.64 521.1 573 521.1C577.17 521.76 581.33 522.41 585.5 523.06C585.79 525.21 586.09 527.35 586.38 529.5C585.84 529.88 581.15 533.5 581.13 533.57C580.93 534.04 581.49 536.37 581.5 537C580.69 536.69 579.37 535.9 578.48 536.12C576.77 536.54 576.13 539.54 575.17 540.63C573.22 542.85 568.02 544.91 565.42 547.13C563.87 548.45 562.8 550.3 560.94 551.4C560.06 551.92 558.93 552.1 558.15 552.77C557.26 553.55 557.1 554.98 556.33 555.85C555.13 557.22 552.81 558.64 551.32 559.72C549.8 560.82 547.84 560.89 546.32 561.82C544.28 563.08 543.93 566.06 541.97 567.36C540.93 568.05 536.57 570.09 535.33 570.52C532.53 571.47 528.86 571.1 525.92 571.5C528.28 571.94 530.64 572.37 533 572.81C518.65 573.85 503.9 572.99 489.5 572.96C484.28 572.94 476.78 571.41 472.47 574.97C466.38 580 470.65 594.16 468.89 601.45C467.55 606.99 453.99 616.76 449.06 619.98C448.87 619.65 448.69 619.33 448.5 619C447.67 619.5 446.83 620 446 620.5C446.1 621.03 446.19 621.56 446.29 622.09C435.69 630.7 425.1 639.32 414.5 647.93C414.34 626.59 414.17 605.25 414.01 583.91C414.78 590.44 415.56 596.97 416.33 603.5C418.61 600.03 421.76 599.42 424.99 596.41C426.06 595.41 426.29 593.87 427.48 592.97C429.82 591.22 432.88 590.73 435.21 588.61C437.19 586.81 439.88 584.56 441.46 582.44C441.68 582.14 441.4 581.57 441.73 581.13C442.57 580.03 446.69 576.79 447.99 575.55C449.92 573.69 452.51 571.85 454.1 569.63C454.77 568.7 455 567.11 455.85 566.4C457.1 565.36 459.11 565.57 460.46 565.5C460.68 560.27 465.08 559.6 469.38 557.5C470.4 554.26 471.81 552.76 475.06 551.5C474.39 548.1 478.93 549.87 478.5 545.45C481.42 544.5 485.65 542.69 487.58 540.05C488.43 538.88 488.94 537.56 490.03 536.53C491.03 535.58 492.25 535.54 493.26 534.78C494.48 533.86 494.73 532.2 495.55 531.05C497.47 528.39 501.35 526.78 499.02 523.5C496.32 522.7 493.62 521.9 490.92 521.1ZM768.17 712C768.06 711.33 767.94 710.67 767.83 710C768.72 709.33 769.61 708.67 770.5 708C770.17 709.81 769.63 710.55 768.17 712ZM764.5 710C765.33 710.92 766.17 711.84 767 712.76C763.83 712.76 760.67 712.76 757.5 712.76C760.39 710.3 761.26 711.54 764.5 710ZM744.96 714.1C744.97 714.56 744.99 715.03 745 715.5C744.33 716.28 743.67 717.06 743 717.85C742.35 717.87 741.69 717.89 741.04 717.91C742.34 716.64 743.65 715.37 744.96 714.1ZM735.05 724.01C735.72 723.35 736.39 722.69 737.06 722.03C737.21 722.32 737.35 722.61 737.5 722.89C738.5 722.26 739.5 721.63 740.5 721C741 721.83 741.5 722.67 742 723.5C739.44 724.49 737.65 725.1 735.05 724.01Z" fill="#156fee" fill-rule="evenodd" stroke="#156fee" stroke-width="0.25" stroke-linejoin="round"/>
<path d="M711.03 395.94C717.82 405.24 724.18 422.56 724.94 434C723.68 436.17 724.81 437.89 724.3 440.31C724.13 441.11 723.25 441.65 723.03 442.53C721.86 447.19 725.16 448.79 721.5 453.35C720.41 453.07 719.33 452.78 718.24 452.5C717.23 453.83 716.21 455.17 715.2 456.5C715.97 458.17 716.74 459.83 717.51 461.5C708.71 465.35 704.47 464.42 701.5 475.01C697.03 476.31 696.42 478.96 693.05 481.59C691.33 482.94 690.22 483.46 688.91 485.31C688.39 486.04 686.64 487.57 686.58 488.47C686.54 489.06 687.22 490.87 687.37 491.5C684.31 494.13 680.21 498.12 676.31 498.5C676.76 499.62 677.19 500.06 676.98 501.37C676.72 503.03 675.11 503.59 674.32 504.8C672.71 507.31 671.85 511.09 669.58 513.13C668.54 514.06 666.73 514.37 665.82 515.39C665.29 515.98 665.45 516.63 665.06 517.29C664.1 518.87 662.53 519.49 661.43 520.81C660.63 521.76 660.51 523.18 659.73 524.15C658.6 525.54 657.2 525.1 656.17 525.79C655.45 526.28 655.17 527.32 654.46 527.89C653.48 528.68 652.08 528.84 651.12 529.67C650.39 530.29 650.13 531.17 649.4 531.81C648.7 532.41 647.38 532.6 646.78 533.27C646.2 533.93 646.39 534.67 645.92 535.36C645.05 536.61 641.37 540.66 640.2 541.69C639 542.74 633.19 545.73 632.49 546.56C632.32 546.77 631.91 548.63 631.5 549.23C627.83 550.65 626.21 552.49 624.62 556.13C624.49 556.42 624.63 557.17 624.46 557.38C622.51 559.88 619.77 559.86 617.5 560.76C616.17 562.66 614.83 564.56 613.5 566.46C611.48 566.68 614.28 566.25 614.75 567.48C614.98 568.09 613.55 568.35 613.58 568.49C613.62 568.64 615.03 569.09 615.19 569.23C615.55 569.56 615.6 570.13 615.91 570.5C609.28 570.83 602.65 571.17 596.01 571.5C598.67 571.58 600.96 571.35 603 572.81C579.67 572.81 556.33 572.81 533 572.81C530.64 572.37 528.28 571.94 525.92 571.5C528.86 571.1 532.53 571.47 535.33 570.52C536.57 570.09 540.93 568.05 541.97 567.36C543.93 566.06 544.28 563.08 546.32 561.82C547.84 560.89 549.8 560.82 551.32 559.72C552.81 558.64 555.13 557.22 556.33 555.85C557.1 554.98 557.26 553.55 558.15 552.77C558.93 552.1 560.06 551.92 560.94 551.4C562.8 550.3 563.87 548.45 565.42 547.13C568.02 544.91 573.22 542.85 575.17 540.63C576.13 539.54 576.77 536.54 578.48 536.12C579.37 535.9 580.69 536.69 581.5 537C581.49 536.37 580.93 534.04 581.13 533.57C581.15 533.5 585.84 529.88 586.38 529.5C586.09 527.35 585.79 525.21 585.5 523.06C581.33 522.41 577.17 521.76 573 521.1C590.27 519.95 608.12 522.93 625.21 519.57C633.8 517.88 640.27 513.8 647.9 509.99C648.1 510.33 648.3 510.66 648.5 511C649.33 510.5 650.17 510 651 509.5C650.91 508.97 650.82 508.45 650.73 507.92C651.47 507.27 652.21 506.62 652.95 505.98C653.14 506.24 653.32 506.51 653.5 506.78C654.86 505.35 656.22 503.93 657.57 502.5C657.39 502.34 657.2 502.19 657.01 502.03C660.66 495.91 665.74 490.91 668.66 484.2C674.35 471.14 675.26 456.44 672.82 442.52C671.96 437.59 669.9 432.99 668.81 428.17C670.72 427.46 670.25 428.07 671.5 430.18C674.55 428.27 677.05 425.8 680.18 423.73C680.76 423.35 680.64 422.75 681.35 422.44C682.19 422.08 685.23 422.47 685.59 423.53C685.78 424.06 685.39 426.2 685.5 427C686.77 424.46 689.57 422.25 690.44 420C690.79 419.09 689.94 418.21 691.03 417.53C691.97 416.95 693.46 417.32 694.5 417C694.47 416.23 693.71 413.8 693.73 413.66C693.86 412.93 695.02 412.54 695.42 411.97C695.87 411.32 695.83 410.57 696.34 409.9C698.92 406.53 701.88 408.78 704.5 402.12C706.5 402.32 708.5 402.51 710.5 402.71C710.68 400.45 710.85 398.19 711.03 395.94ZM658.89 412.32C659.43 412.22 659.96 412.11 660.5 412C661.33 412.83 662.17 413.67 663 414.5C663.03 415.63 663.07 416.75 663.1 417.88C661.7 416.03 660.29 414.18 658.89 412.32ZM726.11 442.06C726.36 444.41 726.61 446.77 726.86 449.12C726.55 448.91 726.24 448.71 725.93 448.5C725.99 446.35 726.05 444.2 726.11 442.06ZM449.06 619.98C448.14 620.68 447.21 621.38 446.29 622.09C446.19 621.56 446.1 621.03 446 620.5C446.83 620 447.67 619.5 448.5 619C448.69 619.33 448.87 619.65 449.06 619.98ZM763.07 718.94C757.04 724.96 751.01 730.98 744.99 737C744.82 736.82 744.66 736.64 744.5 736.46C742.33 738.35 740.15 740.25 737.98 742.14C734.41 738.59 730.83 735.05 727.26 731.5C729.86 729 732.45 726.51 735.05 724.01C737.65 725.1 739.44 724.49 742 723.5C741.5 722.67 741 721.83 740.5 721C739.5 721.63 738.5 722.26 737.5 722.89C737.35 722.61 737.21 722.32 737.06 722.03C738.39 720.66 739.71 719.28 741.04 717.91C741.69 717.89 742.35 717.87 743 717.85C743.76 719.37 743.41 719.66 742.5 721C745.27 721.03 746.5 721.08 748.5 723C751.77 719.86 757.08 722.1 759 717.5C760.36 717.98 761.71 718.46 763.07 718.94Z" fill="#05aef4" fill-rule="evenodd" stroke="#05aef4" stroke-width="0.25" stroke-linejoin="round"/>
<path d="M724.94 434C725.33 436.68 725.72 439.37 726.11 442.06C726.05 444.2 725.99 446.35 725.93 448.5C726.24 448.71 726.55 448.91 726.86 449.12C731.1 496.57 702.88 544.52 659.28 563.79C641.56 571.61 622.19 573.71 603 572.81C600.96 571.35 598.67 571.58 596.01 571.5C602.65 571.17 609.28 570.83 615.91 570.5C615.6 570.13 615.55 569.56 615.19 569.23C615.03 569.09 613.62 568.64 613.58 568.49C613.55 568.35 614.98 568.09 614.75 567.48C614.28 566.25 611.48 566.68 613.5 566.46C614.83 564.56 616.17 562.66 617.5 560.76C619.77 559.86 622.51 559.88 624.46 557.38C624.63 557.17 624.49 556.42 624.62 556.13C626.21 552.49 627.83 550.65 631.5 549.23C631.91 548.63 632.32 546.77 632.49 546.56C633.19 545.73 639 542.74 640.2 541.69C641.37 540.66 645.05 536.61 645.92 535.36C646.39 534.67 646.2 533.93 646.78 533.27C647.38 532.6 648.7 532.41 649.4 531.81C650.13 531.17 650.39 530.29 651.12 529.67C652.08 528.84 653.48 528.68 654.46 527.89C655.17 527.32 655.45 526.28 656.17 525.79C657.2 525.1 658.6 525.54 659.73 524.15C660.51 523.18 660.63 521.76 661.43 520.81C662.53 519.49 664.1 518.87 665.06 517.29C665.45 516.63 665.29 515.98 665.82 515.39C666.73 514.37 668.54 514.06 669.58 513.13C671.85 511.09 672.71 507.31 674.32 504.8C675.11 503.59 676.72 503.03 676.98 501.37C677.19 500.06 676.76 499.62 676.31 498.5C680.21 498.12 684.31 494.13 687.37 491.5C687.22 490.87 686.54 489.06 686.58 488.47C686.64 487.57 688.39 486.04 688.91 485.31C690.22 483.46 691.33 482.94 693.05 481.59C696.42 478.96 697.03 476.31 701.5 475.01C704.47 464.42 708.71 465.35 717.51 461.5C716.74 459.83 715.97 458.17 715.2 456.5C716.21 455.17 717.23 453.83 718.24 452.5C719.33 452.78 720.41 453.07 721.5 453.35C725.16 448.79 721.86 447.19 723.03 442.53C723.25 441.65 724.13 441.11 724.3 440.31C724.81 437.89 723.68 436.17 724.94 434ZM657.01 502.03C657.2 502.19 657.39 502.34 657.57 502.5C656.22 503.93 654.86 505.35 653.5 506.78C653.32 506.51 653.14 506.24 652.95 505.98C654.3 504.66 655.66 503.35 657.01 502.03ZM650.73 507.92C650.82 508.45 650.91 508.97 651 509.5C650.17 510 649.33 510.5 648.5 511C648.3 510.66 648.1 510.33 647.9 509.99C648.85 509.3 649.79 508.61 650.73 507.92ZM744.99 737C742.82 739.06 740.66 741.12 738.5 743.17C738.33 742.83 738.15 742.48 737.98 742.14C740.15 740.25 742.33 738.35 744.5 736.46C744.66 736.64 744.82 736.82 744.99 737Z" fill="#01d6f9" fill-rule="evenodd" stroke="#01d6f9" stroke-width="0.25" stroke-linejoin="round"/>
</svg>